<mxfile host="app.diagrams.net" agent="Mozilla/5.0 (Windows NT 10.0; Win64; x64) AppleWebKit/537.36 (KHTML, like Gecko) Chrome/136.0.0.0 Safari/537.36" version="27.0.9">
  <diagram name="Sequence - detectLowStockItems()" id="sequence-1">
    <mxGraphModel dx="1138" dy="625" grid="1" gridSize="10" guides="1" tooltips="1" connect="1" arrows="1" fold="1" page="1" pageScale="1" pageWidth="827" pageHeight="1169" math="0" shadow="0">
      <root>
        <mxCell id="0" />
        <mxCell id="1" parent="0" />
        <mxCell id="86hexkFTFtTpV62cVOlB-34" value="" style="rounded=0;whiteSpace=wrap;html=1;" vertex="1" parent="1">
          <mxGeometry x="40" y="250" width="541" height="200" as="geometry" />
        </mxCell>
        <mxCell id="86hexkFTFtTpV62cVOlB-1" value="InventoryService" style="rounded=0;whiteSpace=wrap;html=1;" vertex="1" parent="1">
          <mxGeometry x="160" y="120" width="120" height="60" as="geometry" />
        </mxCell>
        <mxCell id="86hexkFTFtTpV62cVOlB-2" value="Supplier" style="rounded=0;whiteSpace=wrap;html=1;" vertex="1" parent="1">
          <mxGeometry x="430" y="120" width="120" height="60" as="geometry" />
        </mxCell>
        <mxCell id="86hexkFTFtTpV62cVOlB-3" value="" style="endArrow=none;dashed=1;html=1;dashPattern=1 3;strokeWidth=2;rounded=0;entryX=0.5;entryY=1;entryDx=0;entryDy=0;" edge="1" parent="1" target="86hexkFTFtTpV62cVOlB-1">
          <mxGeometry width="50" height="50" relative="1" as="geometry">
            <mxPoint x="220" y="560" as="sourcePoint" />
            <mxPoint x="320" y="300" as="targetPoint" />
          </mxGeometry>
        </mxCell>
        <mxCell id="86hexkFTFtTpV62cVOlB-4" value="" style="endArrow=none;dashed=1;html=1;dashPattern=1 3;strokeWidth=2;rounded=0;" edge="1" parent="1" source="86hexkFTFtTpV62cVOlB-5" target="86hexkFTFtTpV62cVOlB-2">
          <mxGeometry width="50" height="50" relative="1" as="geometry">
            <mxPoint x="489.17" y="620" as="sourcePoint" />
            <mxPoint x="489.17" y="220" as="targetPoint" />
          </mxGeometry>
        </mxCell>
        <mxCell id="86hexkFTFtTpV62cVOlB-6" value="" style="endArrow=none;dashed=1;html=1;dashPattern=1 3;strokeWidth=2;rounded=0;" edge="1" parent="1" target="86hexkFTFtTpV62cVOlB-5">
          <mxGeometry width="50" height="50" relative="1" as="geometry">
            <mxPoint x="489" y="481" as="sourcePoint" />
            <mxPoint x="490" y="261" as="targetPoint" />
          </mxGeometry>
        </mxCell>
        <mxCell id="86hexkFTFtTpV62cVOlB-5" value="" style="rounded=0;whiteSpace=wrap;html=1;" vertex="1" parent="1">
          <mxGeometry x="480" y="291" width="20" height="140" as="geometry" />
        </mxCell>
        <mxCell id="86hexkFTFtTpV62cVOlB-8" value="" style="rounded=0;whiteSpace=wrap;html=1;" vertex="1" parent="1">
          <mxGeometry x="210" y="200" width="20" height="340" as="geometry" />
        </mxCell>
        <mxCell id="86hexkFTFtTpV62cVOlB-9" value="" style="endArrow=classic;html=1;rounded=0;" edge="1" parent="1">
          <mxGeometry width="50" height="50" relative="1" as="geometry">
            <mxPoint x="233" y="326" as="sourcePoint" />
            <mxPoint x="477" y="326" as="targetPoint" />
            <Array as="points" />
          </mxGeometry>
        </mxCell>
        <mxCell id="86hexkFTFtTpV62cVOlB-10" value="getPriceForItem(itemID)" style="text;html=1;align=center;verticalAlign=middle;resizable=0;points=[];autosize=1;strokeColor=none;fillColor=none;" vertex="1" parent="1">
          <mxGeometry x="259" y="301" width="150" height="30" as="geometry" />
        </mxCell>
        <mxCell id="86hexkFTFtTpV62cVOlB-20" value="return price" style="text;html=1;align=center;verticalAlign=middle;resizable=0;points=[];autosize=1;strokeColor=none;fillColor=none;" vertex="1" parent="1">
          <mxGeometry x="289" y="351" width="80" height="30" as="geometry" />
        </mxCell>
        <mxCell id="86hexkFTFtTpV62cVOlB-24" value="" style="endArrow=classic;html=1;rounded=0;dashed=1;" edge="1" parent="1">
          <mxGeometry width="50" height="50" relative="1" as="geometry">
            <mxPoint x="480" y="351" as="sourcePoint" />
            <mxPoint x="230" y="351" as="targetPoint" />
          </mxGeometry>
        </mxCell>
        <mxCell id="86hexkFTFtTpV62cVOlB-33" value="Loop [for each Supplier&amp;nbsp;&lt;div&gt;in suppliersList&amp;nbsp;]&lt;/div&gt;" style="text;html=1;align=center;verticalAlign=middle;resizable=0;points=[];autosize=1;strokeColor=none;fillColor=none;" vertex="1" parent="1">
          <mxGeometry x="45" y="250" width="150" height="40" as="geometry" />
        </mxCell>
        <mxCell id="86hexkFTFtTpV62cVOlB-38" value="" style="endArrow=classic;html=1;rounded=0;exitX=1.039;exitY=0.86;exitDx=0;exitDy=0;exitPerimeter=0;entryX=1;entryY=0.912;entryDx=0;entryDy=0;entryPerimeter=0;dashed=1;" edge="1" parent="1" source="86hexkFTFtTpV62cVOlB-8" target="86hexkFTFtTpV62cVOlB-8">
          <mxGeometry width="50" height="50" relative="1" as="geometry">
            <mxPoint x="190" y="430" as="sourcePoint" />
            <mxPoint x="240" y="380" as="targetPoint" />
            <Array as="points">
              <mxPoint x="340" y="492" />
            </Array>
          </mxGeometry>
        </mxCell>
        <mxCell id="86hexkFTFtTpV62cVOlB-39" value="&lt;font style=&quot;font-size: 10px;&quot;&gt;return selectedSupplier&lt;/font&gt;" style="text;html=1;align=center;verticalAlign=middle;resizable=0;points=[];autosize=1;strokeColor=none;fillColor=none;" vertex="1" parent="1">
          <mxGeometry x="220" y="460" width="130" height="30" as="geometry" />
        </mxCell>
        <mxCell id="86hexkFTFtTpV62cVOlB-40" value="" style="endArrow=classic;html=1;rounded=0;exitX=1.004;exitY=0.045;exitDx=0;exitDy=0;exitPerimeter=0;entryX=1.075;entryY=0.116;entryDx=0;entryDy=0;entryPerimeter=0;" edge="1" parent="1" source="86hexkFTFtTpV62cVOlB-8" target="86hexkFTFtTpV62cVOlB-8">
          <mxGeometry width="50" height="50" relative="1" as="geometry">
            <mxPoint x="150" y="300" as="sourcePoint" />
            <mxPoint x="200" y="250" as="targetPoint" />
            <Array as="points">
              <mxPoint x="350" y="220" />
            </Array>
          </mxGeometry>
        </mxCell>
        <mxCell id="86hexkFTFtTpV62cVOlB-41" value="&lt;font style=&quot;font-size: 10px;&quot;&gt;selectOptimalSupplier(suppliersList)&lt;/font&gt;" style="text;html=1;align=center;verticalAlign=middle;resizable=0;points=[];autosize=1;strokeColor=none;fillColor=none;" vertex="1" parent="1">
          <mxGeometry x="229" y="190" width="180" height="30" as="geometry" />
        </mxCell>
      </root>
    </mxGraphModel>
  </diagram>
</mxfile>
